<svg width="34" height="34" viewBox="0 0 34 34" fill="none" xmlns="http://www.w3.org/2000/svg">
<path d="M17 0.333496C26.205 0.333496 33.6667 7.79519 33.6667 17.0002C33.6667 26.2052 26.205 33.6668 17 33.6668C7.79503 33.6668 0.333374 26.2052 0.333374 17.0002C0.333374 7.79519 7.79503 0.333496 17 0.333496ZM11.705 22.5718C11.0467 21.7768 10.2283 21.4935 9.24003 21.7235L8.99003 21.7918L8.00673 23.4852C7.82123 23.7871 7.75983 24.1491 7.83533 24.4953C7.91073 24.8414 8.11723 25.145 8.41153 25.3423C8.70583 25.5397 9.06503 25.6155 9.41403 25.5539C9.76293 25.4923 10.0744 25.298 10.2833 25.0118L10.3867 24.8568L11.7033 22.5718H11.705ZM19.0167 11.4335C18.2033 12.1068 17.3833 14.0952 18.5333 16.0785L23.6 24.8552C23.7755 25.1533 24.057 25.3743 24.3883 25.4739C24.7196 25.5735 25.0763 25.5444 25.3871 25.3923C25.6979 25.2403 25.9398 24.9766 26.0646 24.6539C26.1893 24.3313 26.1877 23.9734 26.06 23.6518L25.9783 23.4852L24.6417 21.1652H26.625C26.8052 21.1656 26.9837 21.1304 27.1502 21.0616C27.3167 20.9928 27.468 20.8918 27.5953 20.7643C27.7226 20.6368 27.8235 20.4854 27.8921 20.3188C27.9607 20.1522 27.9957 19.9737 27.995 19.7935C27.9959 19.4593 27.8742 19.1364 27.6531 18.8858C27.432 18.6352 27.1267 18.4743 26.795 18.4335L26.6233 18.4235H23.0567L19.4 12.0952L19.0167 11.4352V11.4335ZM19.48 6.36017C19.1922 6.19485 18.8543 6.13922 18.5287 6.20355C18.203 6.26787 17.9117 6.44782 17.7083 6.71017L17.605 6.8635L16.9933 7.91849L16.395 6.8635C16.2196 6.56534 15.938 6.34437 15.6067 6.24478C15.2754 6.1452 14.9187 6.17432 14.6079 6.32634C14.2972 6.47836 14.0552 6.74206 13.9305 7.06479C13.8057 7.38739 13.8073 7.74529 13.935 8.06679L14.0167 8.23349L15.4133 10.6618L10.9383 18.4168H7.44333C7.26333 18.4164 7.08503 18.4515 6.91858 18.5202C6.75216 18.5889 6.60096 18.6898 6.47366 18.8171C6.34635 18.9444 6.24546 19.0956 6.17676 19.2621C6.10807 19.4285 6.07293 19.6068 6.07337 19.7868C6.07337 20.4885 6.59337 21.0635 7.27173 21.1485L7.44333 21.1585H19.91C20.4767 20.0918 19.81 18.5768 18.56 18.4285L18.3583 18.4168H14.1033L19.9833 8.23349C20.165 7.91829 20.214 7.54389 20.1196 7.19259C20.0252 6.84128 19.7952 6.54185 19.48 6.36017Z" fill="white"/>
</svg>
