<svg width="28" height="32" viewBox="0 0 28 32" fill="none" xmlns="http://www.w3.org/2000/svg">
<path d="M1.17913 0.721191L16.4536 16.0002L1.18063 31.2792C0.909037 31.165 0.677267 30.9731 0.514467 30.7275C0.351657 30.482 0.265088 30.1938 0.265628 29.8992V2.10119C0.265748 1.80692 0.352407 1.51919 0.514837 1.27381C0.677267 1.02843 0.908287 0.836251 1.17913 0.721191ZM17.5141 17.0607L20.9671 20.5137L4.56163 30.0132L17.5141 17.0607ZM22.3126 12.2637L26.5231 14.7027C26.7504 14.8345 26.9391 15.0238 27.0703 15.2515C27.2014 15.4792 27.2704 15.7374 27.2704 16.0002C27.2704 16.263 27.2014 16.5211 27.0703 16.7488C26.9391 16.9765 26.7504 17.1658 26.5231 17.2977L22.3111 19.7367L18.5746 16.0002L22.3126 12.2637ZM4.56163 1.98719L20.9686 11.4852L17.5141 14.9397L4.56163 1.98719Z" fill="white"/>
</svg>
