<svg width="56" height="56" viewBox="0 0 56 56" fill="none" xmlns="http://www.w3.org/2000/svg">
<path d="M37.3334 55.9998C47.6427 55.9998 56 47.6425 56 37.3332C56 27.0239 47.6427 18.6665 37.3334 18.6665C27.024 18.6665 18.6667 27.0239 18.6667 37.3332C18.6667 47.6425 27.024 55.9998 37.3334 55.9998Z" fill="#FFFB9A" fill-opacity="0.68"/>
<path d="M28 43.7496C31.5 43.7496 37.2873 43.7102 43.9446 39.8665C50.6021 36.0229 52.7563 31.2078 53.4457 28.7428C53.5077 28.5199 53.5245 28.2869 53.4953 28.0576C53.4661 27.8281 53.3916 27.6068 53.276 27.4065C53.1603 27.2063 53.006 27.031 52.8218 26.891C52.6377 26.751 52.4275 26.6492 52.2037 26.5913C50.5889 26.1775 47.8003 25.8034 44.2128 26.6543" stroke="#1E1C1A" stroke-width="3.5" stroke-linecap="round" stroke-linejoin="round"/>
<path d="M11.7867 26.6542C8.19947 25.8034 5.41109 26.1775 3.7964 26.5913C3.57248 26.6492 3.36233 26.7511 3.17822 26.8911C2.99411 27.0311 2.83972 27.2063 2.72408 27.4065C2.60845 27.6068 2.53388 27.8281 2.50473 28.0576C2.47558 28.287 2.49243 28.52 2.5543 28.7428C3.24367 31.2078 5.398 36.0229 12.0554 39.8665C18.7129 43.7102 24.5 43.7496 28 43.7496" stroke="#1E1C1A" stroke-width="3.5" stroke-linecap="round" stroke-linejoin="round"/>
<path d="M28 43.7499C28 43.7499 36.75 38.9772 36.75 26.2499C36.75 16.2784 31.3789 11.1896 29.0529 9.45346C28.749 9.22597 28.3796 9.10303 28 9.10303C27.6204 9.10303 27.251 9.22597 26.9471 9.45346C24.6211 11.1896 19.25 16.2784 19.25 26.2499C19.25 38.9772 28 43.7499 28 43.7499Z" stroke="#1E1C1A" stroke-width="3.5" stroke-linecap="round" stroke-linejoin="round"/>
<path d="M28 43.7499C30.6229 43.1921 37.6972 39.2038 41.9372 31.86C46.1771 24.5161 45.1329 18.6521 44.3045 16.1016C44.1713 15.6901 43.8901 15.3426 43.5155 15.1263C43.1409 14.91 42.6993 14.8403 42.2763 14.9306C39.7683 15.4993 37.4226 16.6314 35.4171 18.2414" stroke="#1E1C1A" stroke-width="3.5" stroke-linecap="round" stroke-linejoin="round"/>
<path d="M20.5828 18.2413C18.5774 16.6314 16.2317 15.4993 13.7237 14.9306C13.3007 14.8403 12.8592 14.91 12.4845 15.1263C12.1099 15.3426 11.8288 15.6901 11.6955 16.1016C10.8672 18.6521 9.82286 24.5161 14.0629 31.86C18.3029 39.2038 25.3772 43.1921 28 43.7499" stroke="#1E1C1A" stroke-width="3.5" stroke-linecap="round" stroke-linejoin="round"/>
</svg>
